<svg width="256" height="256" viewBox="0 0 256 256" fill="none" xmlns="http://www.w3.org/2000/svg">
<path d="M128 248C194.274 248 248 194.274 248 128C248 61.7258 194.274 8 128 8C61.7258 8 8 61.7258 8 128C8 194.274 61.7258 248 128 248Z" fill="white"/>
<path d="M188.357 152.893C186.036 160.786 182.321 166.821 177.679 171.928L193 186.321L178.607 202.107L162.357 186.786C157.25 189.571 153.071 191.893 149.357 193.286C143.321 195.143 135.893 196.536 127.536 196.536C109.893 196.536 95.5 191.428 83.8929 180.75C69.9643 168.214 63 149.643 63 125.036C63 88.125 69.9643 81.8571 84.3571 69.3214C95.9643 59.1071 110.357 54 128 54C145.643 54 160.036 59.5714 171.643 70.25C185.107 82.7857 192.071 100.429 192.071 123.179C192.536 134.786 191.143 145 188.357 152.893ZM137.286 171C139.143 170.536 141 169.607 143.786 168.678L129.857 155.679L144.25 140.357L157.714 153.357C160.036 149.179 161.429 145 162.357 141.75C163.75 136.643 164.214 131.071 164.214 124.571C164.214 109.25 160.964 97.6428 154.929 89.75C148.893 81.3928 139.607 77.2143 128 77.2143C116.857 77.2143 108.036 81.3928 101.536 89.2857C95.0357 97.1785 91.3214 109.25 91.3214 125.036C91.3214 143.607 95.9643 156.607 105.714 164.5C111.75 169.607 119.179 172.393 128 172.393C131.25 172.393 134.5 171.928 137.286 171Z" fill="black"/>
</svg>
